<svg xmlns="http://www.w3.org/2000/svg" width="250" height="408.276" viewBox="0 0 1385 408.276">
  <g id="Grupo_3312" data-name="Grupo 3312" transform="translate(-4682 -11043.71)">
    <text id="aircnc" transform="translate(5157 11055)" fill="#fff" font-size="275" font-family="Poppins-Medium, Poppins" font-weight="500"><tspan x="0" y="289">aircnc</tspan></text>
    <path id="bxl-airbnb" d="M209.743,313.886c-24.94-28.851-39.613-54.161-44.512-75.817-4.85-17.456-2.954-31.439,5.367-41.949,8.789-12.076,21.911-17.955,39.121-17.955s30.307,5.879,39.121,18.069c8.248,10.4,10.316,24.4,5.293,41.949-5.367,22.109-20.016,47.374-44.512,75.84Zm177.163,19.408c-3.447,21.2-19.08,38.771-40.622,47.329-41.533,16.662-82.7-9.92-117.9-45.99,58.225-67.214,69.009-119.582,44-153.4-14.673-19.408-35.674-28.851-62.632-28.851-54.311,0-84.174,42.38-72.431,91.57,6.8,26.627,24.94,56.885,53.818,90.708-18.1,18.455-35.255,31.575-50.4,39.679-11.768,5.857-22.995,9.488-33.729,10.351C57.569,391.473,18.818,347.3,36.421,301.7c2.462-5.879,7.312-16.662,15.609-33.391l.468-.885c27.008-54.071,59.826-115.5,97.518-183.64l.96-2.27,10.71-18.977c8.321-13.983,11.744-20.248,24.964-27.943,6.352-3.564,14.181-5.334,22.995-5.334,17.6,0,31.292,9.488,37.2,17.093,2.905,4.086,6.376,9.511,10.734,16.253l10.316,18.5,1.477,2.7c37.668,68.122,70.486,129.434,97.371,183.618l.492.431,9.872,20.77,5.835,13.007c4.505,10.419,5.441,20.77,3.939,31.621Zm22.478-40.655c-3.422-9.942-9.306-21.633-16.618-35.616v-.5c-34.812-68.167-67.187-129.434-97.888-184.5l-2.068-2.747c-21.887-41.4-37.57-66.26-83.091-66.26-44.98,0-64.109,28.829-83.633,66.328l-1.5,2.7c-30.8,55.069-63.125,116.4-97.863,184.548v.885L16.43,278.225c-3.89,8.58-5.835,13.052-6.376,14.437C-14.862,355.812,36.495,411.29,98.659,411.29a25.377,25.377,0,0,0,4.875-.477h6.844c32.326-3.609,65.587-22.541,99.34-56.409,33.753,33.823,67.088,52.8,99.291,56.409h6.869a26.068,26.068,0,0,0,4.924.477c62.165.045,113.5-55.478,88.581-118.651Z" transform="translate(4678.371 11040.696)" fill="#fff"/>
  </g>
</svg>
